<svg width="300" height="300" viewBox="0 0 300 300" fill="none" xmlns="http://www.w3.org/2000/svg">
<path d="M150 162L111.729 228.287C110.349 230.678 108.436 232.719 106.141 234.253C103.845 235.787 101.228 236.772 98.4902 237.133C95.7529 237.493 92.9694 237.219 90.355 236.332C87.7405 235.444 85.3653 233.967 83.413 232.015L63.3975 212L150 162ZM150 162L63.3975 212L50 162H150ZM150 162H50L57.326 134.659C58.0405 131.992 59.359 129.525 61.1795 127.449C62.9999 125.373 65.2735 123.744 67.8244 122.688C70.3753 121.631 73.135 121.175 75.8901 121.356C78.6452 121.536 81.3219 122.348 83.713 123.729L150 162ZM150 162L111.729 95.713C110.348 93.3219 109.536 90.6452 109.356 87.8901C109.175 85.135 109.631 82.3753 110.688 79.8244C111.744 77.2735 113.373 74.9999 115.449 73.1795C117.525 71.359 119.992 70.0405 122.659 69.326L150 62V162ZM150 162V62L177.341 69.326C180.008 70.0405 182.475 71.359 184.551 73.1795C186.627 74.9999 188.256 77.2735 189.312 79.8244C190.369 82.3753 190.825 85.135 190.644 87.8901C190.464 90.6452 189.652 93.3219 188.271 95.713L150 162ZM150 162L216.287 123.729C218.678 122.348 221.355 121.536 224.11 121.356C226.865 121.175 229.625 121.631 232.176 122.688C234.726 123.744 237 125.373 238.821 127.449C240.641 129.525 241.959 131.992 242.674 134.659L250 162H150ZM150 162H250L236.603 212L150 162ZM150 162L236.603 212L216.587 232.015C214.635 233.967 212.259 235.444 209.645 236.332C207.031 237.219 204.247 237.493 201.51 237.133C198.772 236.772 196.155 235.787 193.859 234.253C191.564 232.719 189.651 230.678 188.271 228.287L150 162Z" fill="#2C1C5F"/>
</svg>
