<svg width="300" height="300" viewBox="0 0 300 300" fill="none" xmlns="http://www.w3.org/2000/svg">
<path d="M165.882 197.929C167.439 197.796 168.918 197.185 170.114 196.18C171.311 195.174 172.167 193.823 172.566 192.311C172.965 190.8 172.886 189.202 172.342 187.737C171.797 186.272 170.813 185.011 169.524 184.127C169.362 184.016 169.164 183.972 168.971 184.004C168.777 184.036 168.604 184.142 168.488 184.3C168.371 184.458 168.32 184.654 168.346 184.849C168.372 185.043 168.472 185.219 168.626 185.341L201.024 211.127C203.853 213.379 205.855 216.505 206.717 220.016C207.579 223.528 207.252 227.226 205.788 230.531C204.324 233.837 201.804 236.564 198.625 238.285C195.445 240.006 191.784 240.623 188.216 240.041L98.1898 225.351C95.553 224.921 93.1642 223.542 91.4732 221.474C89.7821 219.406 88.9053 216.79 89.0078 214.121C89.1103 211.451 90.185 208.911 92.0297 206.978C93.8743 205.046 96.3617 203.854 99.0238 203.627L165.882 197.929ZM134.166 102.325C132.608 102.458 131.13 103.069 129.933 104.075C128.737 105.081 127.88 106.432 127.482 107.943C127.083 109.454 127.161 111.052 127.706 112.517C128.25 113.982 129.235 115.243 130.524 116.127C130.685 116.238 130.883 116.283 131.077 116.25C131.27 116.218 131.443 116.112 131.56 115.955C131.676 115.797 131.727 115.6 131.701 115.406C131.676 115.212 131.575 115.035 131.422 114.913L99.0238 89.1272C96.1949 86.8756 94.1927 83.7494 93.3305 80.2381C92.4684 76.7268 92.7951 73.0288 94.2594 69.723C95.7238 66.4173 98.2431 63.6905 101.423 61.9696C104.603 60.2488 108.263 59.6311 111.832 60.2132L201.858 74.9032C204.495 75.3333 206.883 76.7122 208.574 78.7806C210.265 80.8489 211.142 83.464 211.04 86.1337C210.937 88.8034 209.863 91.3436 208.018 93.2762C206.173 95.2089 203.686 96.4006 201.024 96.6272L134.166 102.325Z" fill="#2C1C5F"/>
</svg>
