<svg width="300" height="300" viewBox="0 0 300 300" fill="none" xmlns="http://www.w3.org/2000/svg">
<path d="M185.776 115.066L221.132 150.421L185.776 185.777L150.421 150.421L185.776 115.066ZM150.421 150.421L185.776 185.777L168.099 203.454C163.41 208.143 157.051 210.777 150.421 210.777C143.79 210.777 137.432 208.143 132.743 203.454L115.066 185.777L150.421 150.421ZM115.066 115.066L150.421 150.421L115.066 185.777L79.7102 150.421L115.066 115.066ZM185.776 44.3553L221.132 79.7107L185.776 115.066L150.421 79.7107L185.776 44.3553ZM221.132 79.7107L238.809 97.3883C243.498 102.077 246.132 108.436 246.132 115.066C246.132 121.696 243.498 128.055 238.809 132.744L221.132 150.421L185.776 115.066L221.132 79.7107ZM221.132 150.421L238.809 168.099C243.498 172.787 246.132 179.146 246.132 185.777C246.132 192.407 243.498 198.766 238.809 203.454C234.121 208.143 227.762 210.777 221.132 210.777C214.501 210.777 208.142 208.143 203.454 203.454L185.776 185.777L221.132 150.421ZM79.7102 150.421L115.066 185.777L97.3879 203.454C92.6995 208.143 86.3406 210.777 79.7102 210.777C73.0798 210.777 66.721 208.143 62.0326 203.454L44.3549 185.777L79.7102 150.421ZM44.3549 115.066L79.7102 150.421L44.3549 185.777L26.6772 168.099C24.3557 165.778 22.5143 163.022 21.2579 159.988C20.0015 156.955 19.3549 153.704 19.3549 150.421C19.3549 147.138 20.0015 143.887 21.2579 140.854C22.5143 137.821 24.3557 135.065 26.6772 132.744L44.3549 115.066ZM79.7102 79.7107L115.066 115.066L79.7102 150.421L44.3549 115.066L79.7102 79.7107ZM115.066 44.3553L150.421 79.7107L115.066 115.066L79.7102 79.7107L115.066 44.3553ZM132.743 26.6777C135.065 24.3562 137.821 22.5147 140.854 21.2584C143.887 20.002 147.138 19.3553 150.421 19.3553C157.051 19.3553 163.41 21.9893 168.099 26.6777L185.776 44.3553L150.421 79.7107L115.066 44.3553L132.743 26.6777Z" fill="#2C1C5F"/>
</svg>
