<svg width="220" height="100" viewBox="0 0 220 100" fill="none" xmlns="http://www.w3.org/2000/svg">
<path d="M110.395 37.818C112.576 39.3761 115.226 40.139 117.902 39.9792C120.578 39.8193 123.118 38.7465 125.099 36.9398C125.766 36.3309 126.254 35.5508 126.509 34.6842C126.764 33.8175 126.777 32.8975 126.546 32.0241C126.315 31.1507 125.849 30.3573 125.199 29.73C124.549 29.1028 123.739 28.6657 122.858 28.4662L105.018 24.4287C104.107 24.2226 103.153 24.3381 102.318 24.7554C101.483 25.1728 100.818 25.8662 100.436 26.7181C100.055 27.57 99.9793 28.5278 100.223 29.4289C100.468 30.33 101.016 31.1188 101.776 31.6615L110.395 37.818ZM127.818 19.6052C129.376 17.4238 130.139 14.774 129.979 12.098C129.819 9.42208 128.747 6.88189 126.94 4.90145C126.331 4.23404 125.551 3.74625 124.684 3.49106C123.818 3.23588 122.898 3.22305 122.024 3.45399C121.151 3.68493 120.357 4.15079 119.73 4.80097C119.103 5.45115 118.666 6.26079 118.466 7.14193L114.429 24.9823C114.223 25.8928 114.338 26.8466 114.755 27.6817C115.173 28.5168 115.866 29.1817 116.718 29.5636C117.57 29.9454 118.528 30.0207 119.429 29.7766C120.33 29.5325 121.119 28.9841 121.661 28.2244L127.818 19.6052ZM109.605 2.18199C107.424 0.623849 104.774 -0.138973 102.098 0.0208464C99.4221 0.180666 96.8819 1.25346 94.9015 3.06016C94.234 3.66905 93.7463 4.44919 93.4911 5.31583C93.2359 6.18247 93.2231 7.10247 93.454 7.97588C93.6849 8.84929 94.1508 9.64272 94.801 10.27C95.4512 10.8972 96.2608 11.3343 97.1419 11.5338L114.982 15.5713C115.893 15.7774 116.847 15.6619 117.682 15.2446C118.517 14.8272 119.182 14.1338 119.564 13.2819C119.945 12.43 120.021 11.4722 119.777 10.5711C119.532 9.67001 118.984 8.88117 118.224 8.33852L109.605 2.18199ZM92.182 20.3948C90.6239 22.5762 89.861 25.226 90.0208 27.902C90.1807 30.5779 91.2535 33.1181 93.0602 35.0985C93.6691 35.766 94.4492 36.2537 95.3158 36.5089C96.1825 36.7641 97.1025 36.7769 97.9759 36.546C98.8493 36.3151 99.6427 35.8492 100.27 35.199C100.897 34.5488 101.334 33.7392 101.534 32.8581L105.571 15.0177C105.777 14.1072 105.662 13.1534 105.245 12.3183C104.827 11.4832 104.134 10.8183 103.282 10.4364C102.43 10.0546 101.472 9.97929 100.571 10.2234C99.67 10.4675 98.8812 11.0159 98.3385 11.7756L92.182 20.3948Z" fill="#53389E"/>
<path d="M8.21713 89H3.03313V56.84H8.21713V89ZM28.0411 89H4.56913V84.344H28.0411V89ZM43.1045 89.48C40.4805 89.48 38.1605 88.968 36.1445 87.944C34.1605 86.888 32.6085 85.432 31.4885 83.576C30.4005 81.688 29.8565 79.528 29.8565 77.096C29.8565 74.6 30.4005 72.424 31.4885 70.568C32.6085 68.712 34.1605 67.272 36.1445 66.248C38.1605 65.192 40.4805 64.664 43.1045 64.664C45.7925 64.664 48.1285 65.192 50.1125 66.248C52.0965 67.272 53.6325 68.712 54.7205 70.568C55.8405 72.424 56.4005 74.6 56.4005 77.096C56.4005 79.528 55.8405 81.688 54.7205 83.576C53.6325 85.432 52.0965 86.888 50.1125 87.944C48.1285 88.968 45.7925 89.48 43.1045 89.48ZM43.1045 84.872C46.0165 84.872 48.1125 84.216 49.3925 82.904C50.6725 81.56 51.3125 79.624 51.3125 77.096C51.3125 74.568 50.6725 72.632 49.3925 71.288C48.1125 69.912 46.0165 69.224 43.1045 69.224C40.2245 69.224 38.1445 69.912 36.8645 71.288C35.5845 72.632 34.9445 74.568 34.9445 77.096C34.9445 79.624 35.5845 81.56 36.8645 82.904C38.1445 84.216 40.2245 84.872 43.1045 84.872ZM72.2105 97.64C69.8425 97.64 67.7625 97.272 65.9705 96.536C64.1785 95.832 62.7705 94.808 61.7465 93.464C60.7545 92.12 60.2585 90.488 60.2585 88.568H65.3945C65.3945 89.72 65.6345 90.648 66.1145 91.352C66.5945 92.056 67.3465 92.552 68.3705 92.84C69.4265 93.16 70.8025 93.32 72.4985 93.32C74.3225 93.32 75.7625 93.112 76.8185 92.696C77.9065 92.312 78.6905 91.624 79.1705 90.632C79.6505 89.64 79.8905 88.264 79.8905 86.504V72.536L80.2745 72.2V65.144H85.0265V86.216C85.0265 88.872 84.4985 91.032 83.4425 92.696C82.3865 94.392 80.8985 95.64 78.9785 96.44C77.0585 97.24 74.8025 97.64 72.2105 97.64ZM70.0505 86.84C67.6825 86.84 65.6505 86.376 63.9545 85.448C62.2905 84.52 60.9945 83.224 60.0665 81.56C59.1705 79.896 58.7225 77.96 58.7225 75.752C58.7225 73.544 59.1865 71.608 60.1145 69.944C61.0745 68.28 62.4185 66.984 64.1465 66.056C65.9065 65.128 67.9865 64.664 70.3865 64.664C72.8825 64.664 74.9945 65.224 76.7225 66.344C78.4825 67.432 79.5705 69.016 79.9865 71.096H81.0905L80.8025 75.272H79.8905C79.8905 73.928 79.5705 72.808 78.9305 71.912C78.2905 70.984 77.3785 70.296 76.1945 69.848C75.0105 69.4 73.5705 69.176 71.8745 69.176C70.2425 69.176 68.8185 69.384 67.6025 69.8C66.4185 70.216 65.5065 70.904 64.8665 71.864C64.2585 72.792 63.9545 74.088 63.9545 75.752C63.9545 77.384 64.2585 78.68 64.8665 79.64C65.4745 80.6 66.3545 81.304 67.5065 81.752C68.6905 82.168 70.0985 82.376 71.7305 82.376C74.3545 82.376 76.3705 81.832 77.7785 80.744C79.1865 79.656 79.8905 78.056 79.8905 75.944H80.8025V80.648H79.5545C79.1385 82.472 78.1305 83.96 76.5305 85.112C74.9305 86.264 72.7705 86.84 70.0505 86.84ZM101.535 89.48C98.9111 89.48 96.5911 88.968 94.5751 87.944C92.5911 86.888 91.0391 85.432 89.9191 83.576C88.8311 81.688 88.2871 79.528 88.2871 77.096C88.2871 74.6 88.8311 72.424 89.9191 70.568C91.0391 68.712 92.5911 67.272 94.5751 66.248C96.5911 65.192 98.9111 64.664 101.535 64.664C104.223 64.664 106.559 65.192 108.543 66.248C110.527 67.272 112.063 68.712 113.151 70.568C114.271 72.424 114.831 74.6 114.831 77.096C114.831 79.528 114.271 81.688 113.151 83.576C112.063 85.432 110.527 86.888 108.543 87.944C106.559 88.968 104.223 89.48 101.535 89.48ZM101.535 84.872C104.447 84.872 106.543 84.216 107.823 82.904C109.103 81.56 109.743 79.624 109.743 77.096C109.743 74.568 109.103 72.632 107.823 71.288C106.543 69.912 104.447 69.224 101.535 69.224C98.6551 69.224 96.5751 69.912 95.2951 71.288C94.0151 72.632 93.3751 74.568 93.3751 77.096C93.3751 79.624 94.0151 81.56 95.2951 82.904C96.5751 84.216 98.6551 84.872 101.535 84.872ZM128.625 89.48C126.097 89.48 123.953 88.968 122.193 87.944C120.465 86.888 119.153 85.432 118.257 83.576C117.361 81.688 116.913 79.528 116.913 77.096C116.913 74.6 117.361 72.424 118.257 70.568C119.153 68.712 120.449 67.272 122.145 66.248C123.841 65.192 125.889 64.664 128.289 64.664C131.105 64.664 133.329 65.32 134.961 66.632C136.593 67.944 137.649 69.608 138.129 71.624H139.329V76.952H138.417C138.417 74.424 137.697 72.536 136.257 71.288C134.817 70.008 132.769 69.368 130.113 69.368C128.481 69.368 127.057 69.624 125.841 70.136C124.625 70.616 123.697 71.416 123.057 72.536C122.449 73.656 122.145 75.176 122.145 77.096C122.145 78.984 122.449 80.488 123.057 81.608C123.697 82.728 124.625 83.528 125.841 84.008C127.057 84.488 128.513 84.728 130.209 84.728C131.905 84.728 133.361 84.472 134.577 83.96C135.825 83.416 136.769 82.584 137.409 81.464C138.081 80.344 138.417 78.968 138.417 77.336H139.329L139.665 82.136H138.513C138.033 84.504 136.929 86.328 135.201 87.608C133.505 88.856 131.313 89.48 128.625 89.48ZM143.601 89H138.849V81.512L138.417 80.888V56.84H143.601V89ZM157.85 89.48C155.61 89.48 153.754 89.032 152.282 88.136C150.81 87.24 149.706 86.04 148.97 84.536C148.234 83.032 147.866 81.352 147.866 79.496V65.144H153.002V78.104C153.002 80.312 153.546 81.992 154.634 83.144C155.754 84.264 157.578 84.824 160.106 84.824C162.762 84.824 164.698 84.168 165.914 82.856C167.162 81.512 167.786 79.544 167.786 76.952L168.698 76.904L168.986 81.608H167.882C167.658 82.952 167.146 84.216 166.346 85.4C165.546 86.584 164.442 87.56 163.034 88.328C161.658 89.096 159.93 89.48 157.85 89.48ZM172.97 89H168.218V81.512L167.786 81.272V65.144H172.97V89ZM188.48 89.48C184.64 89.48 181.664 88.744 179.552 87.272C177.472 85.8 176.432 83.688 176.432 80.936V80.792H181.616V81.176C181.616 82.744 182.128 83.832 183.152 84.44C184.208 85.016 185.984 85.304 188.48 85.304C190.816 85.304 192.4 85.064 193.232 84.584C194.096 84.072 194.528 83.288 194.528 82.232C194.528 81.24 194.192 80.536 193.52 80.12C192.88 79.704 191.696 79.384 189.968 79.16L183.44 78.296C181.168 78.008 179.392 77.368 178.112 76.376C176.832 75.352 176.192 73.832 176.192 71.816C176.192 70.408 176.608 69.176 177.44 68.12C178.272 67.032 179.52 66.184 181.184 65.576C182.848 64.968 184.896 64.664 187.328 64.664C189.76 64.664 191.84 64.984 193.568 65.624C195.328 66.264 196.672 67.224 197.6 68.504C198.56 69.784 199.04 71.368 199.04 73.256V73.4H193.904V73.112C193.904 72.184 193.712 71.4 193.328 70.76C192.944 70.12 192.256 69.64 191.264 69.32C190.304 68.968 188.944 68.792 187.184 68.792C184.976 68.792 183.44 69.048 182.576 69.56C181.712 70.072 181.28 70.888 181.28 72.008C181.28 72.936 181.6 73.608 182.24 74.024C182.88 74.44 184.08 74.776 185.84 75.032L191.36 75.8C194.176 76.152 196.256 76.84 197.6 77.864C198.944 78.888 199.616 80.392 199.616 82.376C199.616 83.848 199.152 85.128 198.224 86.216C197.296 87.272 196 88.088 194.336 88.664C192.672 89.208 190.72 89.48 188.48 89.48ZM218.524 89H213.052C210.492 89 208.46 88.376 206.956 87.128C205.484 85.88 204.748 83.816 204.748 80.936V59.912H209.884V80.648C209.884 82.12 210.236 83.112 210.94 83.624C211.644 84.104 212.732 84.344 214.204 84.344H218.524V89ZM218.524 69.464H200.716V65.144H218.524V69.464Z" fill="#53389E"/>
</svg>
