<svg width="300" height="300" viewBox="0 0 300 300" fill="none" xmlns="http://www.w3.org/2000/svg">
<path d="M71.044 170.775C71.9329 166.183 74.4842 162.08 78.2095 159.252C81.9347 156.424 86.5722 155.07 91.234 155.448L143.195 159.661C144.595 159.774 145.988 159.37 147.109 158.524C148.23 157.678 149.002 156.45 149.277 155.073L150.277 150.073L89.155 228.309C87.0554 230.996 84.1125 232.899 80.8001 233.71C77.4878 234.521 73.9988 234.194 70.895 232.781C67.7913 231.368 65.2534 228.951 63.6901 225.921C62.1268 222.89 61.6291 219.421 62.277 216.073L71.044 170.775ZM229.51 129.371C228.621 133.963 226.07 138.065 222.345 140.893C218.619 143.721 213.982 145.076 209.32 144.698L157.359 140.485C155.959 140.371 154.566 140.776 153.445 141.622C152.324 142.468 151.552 143.696 151.277 145.073L150.277 150.073L211.399 71.8369C213.499 69.1496 216.442 67.2471 219.754 66.4359C223.066 65.6247 226.555 65.952 229.659 67.3649C232.763 68.7779 235.301 71.1943 236.864 74.2251C238.427 77.256 238.925 80.7247 238.277 84.0729L229.51 129.371Z" fill="#2C1C5F"/>
</svg>
