<svg width="300" height="300" viewBox="0 0 300 300" fill="none" xmlns="http://www.w3.org/2000/svg">
<path d="M102.02 166.022C105.269 158.053 111.265 151.511 118.922 147.582C126.579 143.653 135.39 142.598 143.758 144.606L182.119 153.813C182.385 153.879 182.616 154.045 182.762 154.277C182.908 154.509 182.959 154.788 182.904 155.057C182.849 155.325 182.692 155.562 182.466 155.717C182.24 155.873 181.963 155.935 181.692 155.89L149.692 150.39L98.0451 224.761C96.7305 226.653 94.7642 227.994 92.5226 228.526C90.281 229.059 87.9218 228.746 85.8966 227.648C83.8714 226.549 82.3226 224.742 81.5468 222.572C80.771 220.403 80.8228 218.024 81.6921 215.89L102.02 166.022ZM197.364 134.758C194.115 142.727 188.119 149.269 180.462 153.198C172.805 157.127 163.994 158.182 155.626 156.174L117.265 146.967C116.999 146.901 116.768 146.735 116.622 146.503C116.476 146.271 116.425 145.992 116.48 145.723C116.535 145.455 116.692 145.218 116.918 145.062C117.144 144.907 117.422 144.845 117.692 144.89L149.692 150.39L201.339 76.019C202.654 74.1268 204.62 72.7861 206.862 72.2535C209.103 71.7209 211.462 72.0339 213.488 73.1325C215.513 74.2311 217.061 76.0381 217.837 78.2075C218.613 80.3769 218.561 82.7563 217.692 84.89L197.364 134.758Z" fill="#2C1C5F"/>
</svg>
