<svg width="300" height="300" viewBox="0 0 300 300" fill="none" xmlns="http://www.w3.org/2000/svg">
<path d="M212.929 100C213.918 100 214.885 100.293 215.707 100.843C216.529 101.392 217.17 102.173 217.548 103.087C217.927 104.001 218.026 105.006 217.833 105.976C217.64 106.946 217.163 107.837 216.464 108.536L175 150V100H212.929ZM225 150V200H175L225 150ZM175 150H225L175 200V150ZM175 200V250L225 200H175ZM75 200V245C75 246.326 75.5268 247.598 76.4645 248.536C77.4021 249.473 78.6739 250 80 250H125L75 200ZM75 200H125V250L75 200ZM125 200H175L125 250V200ZM175 200V250H125L175 200ZM125 150L175 100V200L125 150ZM75 200H125V150L75 200ZM75 150V200L125 150H75ZM75 100V150H125L75 100ZM75 100H125V150L75 100ZM125 100V150L175 100H125ZM175 100V150H125L175 100ZM125 50L175 100V55C175 53.6739 174.473 52.4021 173.536 51.4645C172.598 50.5268 171.326 50 170 50H125ZM125 50V100H175L125 50ZM125 100H75L125 50V100ZM80 50C78.6739 50 77.4021 50.5268 76.4645 51.4645C75.5268 52.4021 75 53.6739 75 55V100L125 50H80Z" fill="#2C1C5F"/>
</svg>
