<svg width="300" height="300" viewBox="0 0 300 300" fill="none" xmlns="http://www.w3.org/2000/svg">
<path d="M131.522 37.0045C133.866 34.6603 137.045 33.3433 140.361 33.3433C143.676 33.3433 146.855 34.6603 149.2 37.0045C151.544 39.3487 152.861 42.5281 152.861 45.8433C152.861 49.1585 151.544 52.338 149.2 54.6822C146.855 57.0264 143.676 58.3433 140.361 58.3433C137.045 58.3433 133.866 57.0264 131.522 54.6822C130.361 53.5214 129.44 52.1435 128.812 50.6269C128.184 49.1103 127.861 47.4849 127.861 45.8433C127.861 44.2018 128.184 42.5764 128.812 41.0598C129.44 39.5432 130.361 38.1652 131.522 37.0045ZM163.494 68.977C165.099 67.372 167.005 66.0988 169.102 65.2302C171.199 64.3616 173.446 63.9145 175.716 63.9145C177.986 63.9145 180.233 64.3616 182.33 65.2302C184.427 66.0988 186.333 67.372 187.938 68.977C189.543 70.582 190.816 72.4873 191.685 74.5843C192.553 76.6813 193 78.9289 193 81.1987C193 83.4685 192.553 85.716 191.685 87.813C190.816 89.91 189.543 91.8154 187.938 93.4203C186.333 95.0253 184.427 96.2985 182.33 97.1671C180.233 98.0358 177.986 98.4829 175.716 98.4829C173.446 98.4829 171.199 98.0358 169.102 97.1671C167.005 96.2985 165.099 95.0253 163.494 93.4203C161.889 91.8154 160.616 89.91 159.748 87.813C158.879 85.716 158.432 83.4685 158.432 81.1987C158.432 78.9289 158.879 76.6813 159.748 74.5843C160.616 72.4873 161.889 70.582 163.494 68.977ZM229.422 134.905C233.932 130.395 240.049 127.862 246.427 127.862C252.805 127.862 258.921 130.395 263.431 134.905C267.941 139.415 270.475 145.531 270.475 151.909C270.475 158.287 267.941 164.404 263.431 168.914C258.921 173.424 252.805 175.957 246.427 175.957C240.049 175.957 233.932 173.424 229.422 168.914C224.912 164.404 222.379 158.287 222.379 151.909C222.379 145.531 224.912 139.415 229.422 134.905ZM160.627 136.82C162.609 134.839 164.961 133.267 167.55 132.195C170.139 131.122 172.914 130.57 175.716 130.57C178.518 130.57 181.293 131.122 183.882 132.195C186.471 133.267 188.823 134.839 190.805 136.82C192.787 138.802 194.358 141.154 195.431 143.743C196.503 146.332 197.055 149.107 197.055 151.909C197.055 154.712 196.503 157.486 195.431 160.075C194.358 162.664 192.787 165.017 190.805 166.998C188.823 168.98 186.471 170.552 183.882 171.624C181.293 172.696 178.518 173.248 175.716 173.248C172.914 173.248 170.139 172.696 167.55 171.624C164.961 170.552 162.609 168.98 160.627 166.998C158.646 165.017 157.074 162.664 156.001 160.075C154.929 157.486 154.377 154.712 154.377 151.909C154.377 149.107 154.929 146.332 156.001 143.743C157.074 141.154 158.646 138.802 160.627 136.82ZM198.85 175.043C200.455 173.438 202.36 172.165 204.457 171.296C206.554 170.428 208.802 169.981 211.071 169.981C213.341 169.981 215.589 170.428 217.686 171.296C219.783 172.165 221.688 173.438 223.293 175.043C224.898 176.648 226.171 178.553 227.04 180.65C227.908 182.747 228.356 184.995 228.356 187.265C228.356 189.534 227.908 191.782 227.04 193.879C226.171 195.976 224.898 197.881 223.293 199.486C221.688 201.091 219.783 202.365 217.686 203.233C215.589 204.102 213.341 204.549 211.071 204.549C208.802 204.549 206.554 204.102 204.457 203.233C202.36 202.365 200.455 201.091 198.85 199.486C197.245 197.881 195.972 195.976 195.103 193.879C194.234 191.782 193.787 189.534 193.787 187.265C193.787 184.995 194.234 182.747 195.103 180.65C195.972 178.553 197.245 176.648 198.85 175.043ZM60.8112 107.715C63.1554 105.371 66.3348 104.054 69.65 104.054C72.9652 104.054 76.1447 105.371 78.4889 107.715C80.8331 110.059 82.15 113.239 82.15 116.554C82.15 119.869 80.8331 123.049 78.4889 125.393C76.1447 127.737 72.9652 129.054 69.65 129.054C66.3348 129.054 63.1554 127.737 60.8112 125.393C59.6505 124.232 58.7297 122.854 58.1015 121.338C57.4733 119.821 57.15 118.196 57.15 116.554C57.15 114.912 57.4733 113.287 58.1015 111.77C58.7297 110.254 59.6505 108.876 60.8112 107.715ZM99.5493 146.453C100.996 145.006 102.959 144.194 105.005 144.194C107.052 144.194 109.014 145.006 110.461 146.453C111.908 147.9 112.721 149.863 112.721 151.909C112.721 153.956 111.908 155.918 110.461 157.365C109.014 158.812 107.052 159.625 105.005 159.625C102.959 159.625 100.996 158.812 99.5493 157.365C98.1024 155.918 97.2895 153.956 97.2895 151.909C97.2895 149.863 98.1024 147.9 99.5493 146.453ZM137.772 184.676C138.459 183.989 139.39 183.604 140.361 183.604C141.332 183.604 142.263 183.989 142.949 184.676C143.636 185.363 144.022 186.294 144.022 187.265C144.022 188.236 143.636 189.167 142.949 189.853C142.263 190.54 141.332 190.926 140.361 190.926C139.39 190.926 138.459 190.54 137.772 189.853C137.085 189.167 136.7 188.236 136.7 187.265C136.7 186.294 137.085 185.363 137.772 184.676ZM175.043 221.947C175.131 221.858 175.236 221.788 175.352 221.74C175.467 221.692 175.591 221.668 175.716 221.668C175.841 221.668 175.965 221.692 176.08 221.74C176.196 221.788 176.301 221.858 176.389 221.947C176.478 222.035 176.548 222.14 176.596 222.256C176.644 222.371 176.668 222.495 176.668 222.62C176.668 222.745 176.644 222.869 176.596 222.984C176.548 223.1 176.478 223.205 176.389 223.293C176.301 223.382 176.196 223.452 176.08 223.5C175.965 223.548 175.841 223.572 175.716 223.572C175.591 223.572 175.467 223.548 175.352 223.5C175.236 223.452 175.131 223.382 175.043 223.293C174.954 223.205 174.884 223.1 174.836 222.984C174.788 222.869 174.764 222.745 174.764 222.62C174.764 222.495 174.788 222.371 174.836 222.256C174.884 222.14 174.954 222.035 175.043 221.947ZM68.9769 186.592C69.0652 186.503 69.1702 186.433 69.2857 186.385C69.4012 186.337 69.525 186.312 69.65 186.312C69.7751 186.312 69.8989 186.337 70.0144 186.385C70.1299 186.433 70.2348 186.503 70.3232 186.592C70.4116 186.68 70.4818 186.785 70.5297 186.9C70.5776 187.016 70.6022 187.14 70.6022 187.265C70.6022 187.39 70.5776 187.514 70.5297 187.629C70.4818 187.745 70.4116 187.849 70.3232 187.938C70.2348 188.026 70.1299 188.097 70.0144 188.144C69.8989 188.192 69.7751 188.217 69.65 188.217C69.525 188.217 69.4012 188.192 69.2857 188.144C69.1702 188.097 69.0652 188.026 68.9769 187.938C68.8884 187.849 68.8182 187.745 68.7703 187.629C68.7225 187.514 68.6978 187.39 68.6978 187.265C68.6978 187.14 68.7225 187.016 68.7703 186.9C68.8182 186.785 68.8884 186.68 68.9769 186.592ZM102.417 220.031C103.103 219.345 104.034 218.959 105.005 218.959C105.976 218.959 106.907 219.345 107.594 220.031C108.281 220.718 108.666 221.649 108.666 222.62C108.666 223.591 108.281 224.522 107.594 225.209C106.907 225.895 105.976 226.281 105.005 226.281C104.034 226.281 103.103 225.895 102.417 225.209C101.73 224.522 101.344 223.591 101.344 222.62C101.344 221.649 101.73 220.718 102.417 220.031ZM134.905 252.519C136.352 251.072 138.314 250.26 140.361 250.26C142.407 250.26 144.37 251.072 145.817 252.519C147.264 253.966 148.077 255.929 148.077 257.975C148.077 260.022 147.264 261.984 145.817 263.431C144.37 264.878 142.407 265.691 140.361 265.691C138.314 265.691 136.352 264.878 134.905 263.431C133.458 261.984 132.645 260.022 132.645 257.975C132.645 255.929 133.458 253.966 134.905 252.519Z" fill="#2C1C5F"/>
</svg>
