<svg width="21" height="20" viewBox="0 0 21 20" fill="none" xmlns="http://www.w3.org/2000/svg">
<g id="copy-05">
<path id="Icon" d="M6.91699 13.3332V15.6665C6.91699 16.5999 6.91699 17.0666 7.09865 17.4232C7.25844 17.7368 7.5134 17.9917 7.82701 18.1515C8.18353 18.3332 8.65024 18.3332 9.58366 18.3332H15.917C16.8504 18.3332 17.3171 18.3332 17.6736 18.1515C17.9872 17.9917 18.2422 17.7368 18.402 17.4232C18.5837 17.0666 18.5837 16.5999 18.5837 15.6665V9.33317C18.5837 8.39975 18.5837 7.93304 18.402 7.57652C18.2422 7.26292 17.9872 7.00795 17.6736 6.84816C17.3171 6.6665 16.8504 6.6665 15.917 6.6665H13.5837M4.58366 13.3332H10.917C11.8504 13.3332 12.3171 13.3332 12.6736 13.1515C12.9872 12.9917 13.2422 12.7368 13.402 12.4232C13.5837 12.0666 13.5837 11.5999 13.5837 10.6665V4.33317C13.5837 3.39975 13.5837 2.93304 13.402 2.57652C13.2422 2.26292 12.9872 2.00795 12.6736 1.84816C12.3171 1.6665 11.8504 1.6665 10.917 1.6665H4.58366C3.65024 1.6665 3.18353 1.6665 2.82701 1.84816C2.5134 2.00795 2.25844 2.26292 2.09865 2.57652C1.91699 2.93304 1.91699 3.39975 1.91699 4.33317V10.6665C1.91699 11.5999 1.91699 12.0666 2.09865 12.4232C2.25844 12.7368 2.5134 12.9917 2.82701 13.1515C3.18353 13.3332 3.65024 13.3332 4.58366 13.3332Z" stroke="#344054" stroke-width="1.66667" stroke-linecap="round" stroke-linejoin="round"/>
</g>
</svg>
